<svg width="60" height="81" viewBox="0 0 60 81" fill="none" xmlns="http://www.w3.org/2000/svg">
<path fill-rule="evenodd" clip-rule="evenodd" d="M24.4989 74.0849C24.1604 74.0388 23.5257 74.0849 22.9756 74.0849V75.6985C24.0757 75.6985 24.245 75.6985 24.5835 75.6524C24.922 75.6063 25.1336 75.2836 25.1336 74.8226C25.1336 74.3615 24.8374 74.131 24.4989 74.0849Z" fill="#333333"/>
<path fill-rule="evenodd" clip-rule="evenodd" d="M43.5403 63.1587V63.2048V63.1587V63.2048L42.8633 65.7865H44.2596L43.5403 63.2048V63.1587Z" fill="#333333"/>
<path fill-rule="evenodd" clip-rule="evenodd" d="M26.5731 62.9746C26.2346 62.9285 25.6422 62.9746 25.0498 62.9746V64.5881C26.1499 64.5881 26.3192 64.5881 26.6577 64.542C26.9962 64.4959 27.2078 64.1732 27.2078 63.7122C27.2078 63.2512 26.9116 63.0207 26.5731 62.9746Z" fill="#333333"/>
<path fill-rule="evenodd" clip-rule="evenodd" d="M21.7067 1.33704C21.5798 1.38314 21.7913 1.29094 21.7067 1.33704V1.33704Z" fill="#333333"/>
<path fill-rule="evenodd" clip-rule="evenodd" d="M45.8248 7.3301C44.1746 4.61013 41.5089 2.44337 38.6739 1.33693C36.0082 0.46101 33.1309 0 30.2113 0C27.2917 0 24.4144 0.46101 21.7486 1.33693C18.8714 2.44337 16.2056 4.61013 14.5977 7.3301C11.8897 11.6636 9.43553 20.008 9.30859 28.3062V28.3523C9.43553 36.6505 11.8897 45.041 14.5977 49.3284C16.2479 52.0484 18.9137 54.2151 21.7486 55.2755C24.4144 56.1514 27.2494 56.6124 30.169 56.6124H30.2113H30.2536C33.1732 56.6124 35.9236 56.1514 38.5893 55.2755C41.4666 54.169 44.1746 52.0023 45.8248 49.2823C48.5329 44.9488 50.987 36.6044 51.114 28.3062V28.2601C50.987 20.008 48.5329 11.6636 45.8248 7.3301ZM46.121 46.2396C44.2592 50.8497 41.3819 53.6619 37.1929 54.9067C34.9503 55.5521 32.5808 55.8748 30.1267 55.8748C27.6725 55.8748 25.303 55.5521 23.0604 54.9067C18.8714 53.6619 15.9941 50.8497 14.1323 46.2396C12.4398 42.1827 10.7049 34.576 10.7896 28.3062C10.7049 22.0364 12.4398 14.4297 14.1323 10.3728C15.9941 5.76266 18.8714 2.95049 23.0604 1.70575C25.303 1.06034 27.7148 0.737624 30.1267 0.737624C32.5808 0.737624 34.9503 1.06034 37.1929 1.70575C41.3819 2.95049 44.2592 5.76266 46.121 10.3728C47.8135 14.4297 49.5484 22.0364 49.4637 28.3062C49.5484 34.576 47.8135 42.1827 46.121 46.2396Z" fill="#333333"/>
<path fill-rule="evenodd" clip-rule="evenodd" d="M33.0465 15.4438C32.7503 14.9366 33.0042 15.3977 32.708 14.7983L33.0465 15.4438Z" fill="#333333"/>
<path fill-rule="evenodd" clip-rule="evenodd" d="M40.4512 12.4011C39.6473 10.3726 38.0394 8.8974 36.0507 8.29808C34.1889 7.74486 32.2002 7.46826 30.1691 7.46826H30.0845C28.0958 7.46826 26.0648 7.79097 24.203 8.29808C22.2143 8.8974 20.6064 10.3726 19.8024 12.4011C18.0253 16.5502 16.8828 22.4512 16.8828 28.306C16.8828 34.1609 18.0253 40.108 19.8024 44.211C20.6064 46.2394 22.2143 47.7147 24.203 48.314C26.0648 48.8672 28.0535 49.1438 30.0845 49.1438H30.1691C32.1578 49.1438 34.1889 48.8211 36.0507 48.314C38.0394 47.7147 39.6473 46.2394 40.4512 44.211C42.2284 40.0619 43.3708 34.1609 43.3708 28.306C43.3708 22.4973 42.2284 16.5502 40.4512 12.4011ZM37.0662 24.2491C37.1085 24.2491 37.3624 24.203 37.4047 24.0186V20.3305C37.8701 20.1922 38.3356 20.0539 38.801 19.9617V22.1746C39.0549 22.1285 39.1818 22.0824 39.5203 22.0363V24.9868L38.6741 25.1251L38.4202 26.3237H35.416L34.9928 25.2634C34.2735 25.1711 34.2312 25.1712 33.5119 25.1251C34.1889 24.1569 34.9082 23.1888 35.3737 22.1746V20.6532L36.7277 20.4688C36.7277 21.7136 36.7277 22.6817 36.7277 24.0186C36.7277 24.1569 36.8969 24.2491 37.0662 24.2491ZM35.289 10.6954C35.6275 10.6032 36.093 10.6493 36.3468 10.9259C36.7277 11.2486 36.8546 11.7557 36.7277 12.2167C36.4738 13.2309 35.416 13.4153 34.5697 13.6919L34.1043 13.0004C34.3158 12.0784 34.4004 11.0642 35.289 10.6954ZM32.7079 14.7984L33.0464 15.4438L32.2002 16.458C31.9886 16.2275 31.9463 16.1814 31.7347 15.9509C32.1579 15.4438 32.2002 15.3516 32.7079 14.7984ZM22.1296 13.3692C22.2989 13.8302 22.5528 14.199 23.0182 14.4295C22.9759 14.1529 22.7643 13.9224 22.6797 13.6458C22.4681 13.1387 22.5105 12.355 22.8066 11.894C23.0182 11.5252 23.3567 11.3869 23.6952 11.2486C23.5683 11.6635 23.526 12.2167 23.6952 12.6316C23.9068 12.4472 23.9491 12.4011 24.1184 12.2167C24.203 12.1245 24.203 12.1245 24.2876 12.0784C24.6261 12.8621 25.0069 13.8763 24.7531 14.7984L24.6261 15.1672C24.5838 14.5218 24.4992 14.2451 24.076 14.0146C24.0337 14.3834 24.2453 14.6601 24.2876 15.1211C24.4569 15.8587 24.3299 16.5963 23.9068 17.0112H22.8066C22.045 16.1353 21.9604 14.7062 22.1296 13.3692ZM24.6261 18.256C24.3722 18.256 24.2876 18.256 24.0337 18.256L23.7799 20.5149C23.526 20.2844 23.2298 20.1 22.9336 20.0078C22.8067 19.0397 22.7643 18.9936 22.6797 18.3021C22.4681 18.3021 22.3835 18.3021 22.1296 18.3021V17.6105C23.1028 17.6105 23.6106 17.6105 24.5838 17.6105L24.6261 18.256ZM20.4371 27.1996H27.0803V29.3203H20.4371V27.1996ZM23.0182 23.0044C23.3144 22.9122 23.5683 23.0966 23.7799 23.281C23.7375 24.4796 23.7375 24.4796 23.7375 25.7705H23.1028V25.5861C23.0605 24.5718 23.0182 23.9725 23.0182 23.0044ZM22.5951 37.849C22.4681 37.849 22.2566 37.849 22.1296 37.8029C21.8334 37.7107 21.4526 37.5724 21.1988 37.1575L21.1564 37.0653L21.1141 36.927L21.0718 36.7887L21.0295 36.6043V32.6857C20.9872 32.1785 20.8179 32.1786 20.4371 31.902L20.5641 31.8558L22.0027 31.3487C22.2143 31.5792 22.2566 31.9019 22.2566 32.2247V35.3134C22.2566 35.4978 22.4258 35.6361 22.6374 35.6361C22.8913 35.6361 22.9759 35.5439 23.0182 35.3134C23.0182 33.9304 22.9759 33.5616 23.0182 32.3169C23.0605 31.9019 23.399 31.487 23.7375 31.3948C24.1607 31.1643 24.6261 31.2565 25.0069 31.4409C25.6416 31.7636 25.6416 33.1467 25.5993 34.2992C25.3454 34.1148 25.3031 34.1148 25.0493 34.0226C24.8377 33.9765 24.5838 34.0226 24.4146 34.1609C24.203 34.3914 24.203 34.5758 24.1607 34.9446C24.1607 36.2355 24.2876 37.1575 23.6952 37.6646C23.3144 37.8029 22.9759 37.849 22.5951 37.849ZM24.5415 42.0903C24.2453 41.8598 24.1607 41.6293 24.0337 41.3066C23.7798 39.9697 25.2608 39.5087 25.5993 38.4022C25.8955 36.5582 25.9378 34.5758 27.1226 33.1467C27.2495 30.4267 28.0535 28.0294 29.8306 26.0471C29.746 25.4478 29.5344 24.8945 29.3652 24.3413C29.1113 24.3413 28.9844 24.2952 28.7728 24.0647C28.6035 23.8342 28.5612 23.6498 28.5189 23.3732C27.8842 24.203 27.1226 25.125 26.2763 25.7244C26.1071 25.8166 25.9378 25.6322 25.6416 25.3556C24.6261 24.4796 24.4146 22.4512 22.849 22.5434C22.1296 22.2668 22.172 21.3447 22.045 20.6532C22.2989 20.4227 22.722 20.4688 23.0605 20.6071C24.0337 21.1603 24.7107 22.4051 25.6416 23.1888C25.8955 23.4193 26.1071 23.6959 26.3609 23.7881C26.9533 23.2349 27.4611 22.7278 27.8842 21.8519C28.1804 21.3447 28.6459 21.1142 29.1536 21.1142L29.5344 20.6532L29.3229 19.4546C28.942 18.9014 28.6035 18.3482 28.3497 17.7488C28.4766 17.0573 28.5612 16.2736 29.1959 15.8587C29.6191 15.5821 29.9576 16.2275 30.2961 15.8126C30.55 15.7665 30.7615 15.8126 30.9308 15.997C31.1847 16.5041 31.4808 16.9651 31.5232 17.5644C31.3539 18.1177 31.1423 18.6248 30.8885 19.1319C30.8461 19.2702 30.6769 19.2702 30.5923 19.3624C30.6346 19.5929 30.7192 19.8695 30.8461 20.0539C31.0577 20.1 31.227 20.1461 31.4385 20.1C31.6078 19.5007 32.2425 19.2241 32.7079 19.0397L33.8081 18.256C33.6388 17.3339 34.1466 16.5502 33.8504 15.6282C33.2157 15.3055 33.0464 14.5218 32.9195 13.9224C33.0041 13.5536 33.1734 13.1387 33.4272 12.816L33.4696 12.8621C34.0619 13.6458 34.612 14.3834 34.8236 15.3516C34.9505 16.5502 35.0351 17.7949 34.9505 19.0397C34.3581 19.6851 33.6388 20.0539 32.9618 20.561L32.454 21.6214C32.4117 22.6817 32.1155 23.6959 31.9463 24.7101C32.3694 25.9549 32.8772 27.6606 32.4964 28.8132C32.2002 29.5047 31.6078 29.8735 31.1847 30.2884L30.0422 31.2565C31.1846 32.5935 30.8885 34.1609 30.9308 36.0972C30.9308 36.5582 31.6924 36.9731 31.2693 37.5263C30.9308 38.1256 30.3807 38.6327 30.4653 39.4165C30.1268 40.0619 29.2806 40.2002 28.8997 40.2002C28.8151 40.2002 28.7305 40.1541 28.7305 40.0619C28.8151 39.7392 29.0267 39.4626 29.1536 39.1859C29.5767 38.4944 29.3652 37.5724 29.8729 36.9731C29.4498 35.4979 28.8574 34.1609 28.6882 32.5935V32.5013C28.3497 33.2389 28.5189 33.9304 28.7305 34.4836C27.6303 36.005 26.4033 37.4802 26.4033 39.4626C25.9378 40.3846 25.2608 41.2144 24.9223 42.1825C24.88 42.3208 24.6684 42.1825 24.5415 42.0903ZM31.904 37.2497C32.5387 37.2958 33.2157 37.849 33.4696 38.5405C33.7234 39.2321 33.6388 40.108 33.2157 40.6612C32.7079 41.3066 32.0309 41.6754 31.227 41.491C30.7192 41.3527 30.2115 41.03 29.9153 40.5229C30.3384 40.3846 30.9308 40.108 31.0577 39.647C31.0154 38.9554 31.4385 38.4022 31.777 37.849C31.904 37.6646 31.9463 37.5263 31.904 37.2497ZM32.4964 36.6504V30.4728C33.3003 30.4728 33.5542 30.4728 34.4004 30.4728V36.6504H32.4964ZM28.3497 46.1011C27.8419 46.5161 26.9533 46.6083 26.3609 46.2394C26.0224 46.055 25.7263 45.7323 25.557 45.3635C25.4301 45.0408 25.3454 44.9025 25.3454 44.5798C26.7418 44.5798 27.6727 44.5798 29.1536 44.5798C29.1536 45.1791 28.8574 45.7323 28.3497 46.1011ZM30.9731 46.2855C30.55 46.2855 30.0422 46.2855 29.6614 46.2855V43.75H27.6303V42.7358H29.6614L30.2961 41.9059C30.5923 42.3208 30.6346 42.3208 30.9731 42.7358H33.0041V43.75H30.9731C30.9731 44.8103 30.9731 44.9947 30.9731 46.2855ZM35.0351 45.4096C34.8659 45.7323 34.5697 46.1011 34.2312 46.2855C33.6388 46.6544 32.7926 46.5622 32.2425 46.1472C31.777 45.7784 31.4808 45.2252 31.4385 44.6259C32.9195 44.6259 33.8504 44.6259 35.2467 44.6259C35.2467 44.9486 35.2044 45.0408 35.0351 45.4096ZM37.9124 39.9697C37.7009 40.2002 37.6162 40.2924 37.4047 40.569L36.9392 39.9236V38.1717C36.2622 38.5405 36.4315 39.6009 36.4315 40.5229C36.0083 40.1541 35.8391 39.9697 35.416 39.5548C35.2044 38.4944 35.7968 37.8951 36.2199 37.1575L37.9548 38.9554V39.9697H37.9124ZM36.5161 32.5935C37.4047 33.5155 38.1663 34.3914 38.9703 35.2212C39.2665 35.5439 39.478 36.0511 39.3088 36.5121C39.2241 36.7426 39.0972 36.9731 38.9703 37.1575C38.9703 36.6965 38.801 36.466 38.5471 36.1894C37.4893 35.0368 35.6275 33.4694 35.5006 32.7779C35.3313 32.3169 35.3737 31.7636 35.3737 31.2565C35.6698 30.9799 35.9237 30.7494 36.3045 30.4267C36.2622 31.3026 36.1776 32.1325 36.5161 32.5935ZM39.3934 39.6931C39.0972 39.9697 38.8433 40.2002 38.4625 40.4768C38.5048 39.6931 38.5894 38.8632 38.2509 38.4022C37.3624 37.4802 36.6007 36.6043 35.7968 35.7745C35.5006 35.4517 35.289 34.9446 35.4583 34.4836C35.5429 34.2531 35.6698 34.0226 35.7968 33.8382C35.7968 34.2992 35.966 34.5297 36.2199 34.7602C37.2777 35.9128 39.1395 37.4802 39.2665 38.1717C39.4357 38.5866 39.3511 39.1399 39.3934 39.6931ZM38.5471 33.8843L36.8123 32.0864V31.026C37.0239 30.7955 37.1085 30.7033 37.3201 30.4267L37.7855 31.0721V32.824C38.4625 32.4552 38.2933 31.3948 38.2933 30.4728C38.7164 30.8416 38.8856 31.026 39.3088 31.4409C39.5626 32.5013 38.9703 33.1006 38.5471 33.8843ZM40.0281 29.3203H33.3849V27.1996H40.0281V29.3203Z" fill="#333333"/>
<path fill-rule="evenodd" clip-rule="evenodd" d="M30.846 54.3997C30.846 53.2472 31.8615 52.6939 32.4962 51.9102C32.6654 51.7258 32.7501 51.357 32.6231 51.0804C32.5385 50.896 32.4539 50.8038 32.2846 50.7577C32.0731 50.7116 31.8615 50.7577 31.7346 50.896C31.523 51.0804 31.4807 51.357 31.4807 51.6336L30.7614 51.6797C30.7191 51.2648 30.8037 50.8038 31.0576 50.4811C31.3961 50.0662 31.9038 49.974 32.3693 50.0201C32.7501 50.1123 33.2155 50.3428 33.3848 50.8038C33.5963 51.3109 33.5117 51.9102 33.1732 52.3251C32.7501 52.8322 32.2 53.1089 31.8192 53.6621L33.6387 53.5699C33.6387 53.8004 33.681 54.0309 33.681 54.2614L30.846 54.3997Z" fill="#333333"/>
<path fill-rule="evenodd" clip-rule="evenodd" d="M24.3725 49.4668L23.1877 53.4777L22.4261 53.201L23.23 50.4811V50.435C22.9338 50.3428 22.553 50.2045 22.2568 50.1123L22.4261 49.6051C22.8069 49.6973 23.1877 49.7895 23.5262 49.4668C23.6532 49.3746 23.6532 49.3285 23.7378 49.2363L24.3725 49.4668Z" fill="#333333"/>
<path fill-rule="evenodd" clip-rule="evenodd" d="M38.7584 51.6335C38.6738 51.2646 38.4622 50.9419 38.0814 50.8036L37.8699 50.7575C38.1237 50.5731 38.3353 50.2043 38.2507 49.8355C38.2084 49.4206 37.9122 49.144 37.5737 49.0057C37.2775 48.9135 36.939 48.9135 36.6005 49.0057C36.262 49.0979 35.9658 49.2362 35.7119 49.4667C35.458 49.7433 35.3311 50.1121 35.458 50.527C35.5426 50.8958 35.8811 51.0802 36.1773 51.1263L36.0081 51.3107C35.7119 51.6334 35.6696 52.0023 35.7542 52.4172C35.8388 52.8321 36.1773 53.2009 36.5581 53.3392C36.8543 53.4314 37.1928 53.4314 37.5737 53.3392C37.9122 53.247 38.2507 53.0626 38.4622 52.8321C38.7584 52.5555 38.8854 52.0945 38.7584 51.6335ZM36.262 50.527C36.1773 50.3426 36.1773 50.066 36.3466 49.8816C36.4312 49.7894 36.5581 49.6972 36.7274 49.6511C36.8543 49.605 37.0236 49.605 37.1505 49.6511C37.3621 49.7433 37.489 49.9738 37.489 50.1582C37.489 50.2965 37.4044 50.4348 37.3198 50.527C37.2352 50.6192 37.1082 50.6653 36.939 50.7114C36.812 50.7575 36.6428 50.7575 36.5581 50.7114C36.4735 50.7114 36.3466 50.6653 36.262 50.527ZM37.8699 52.4172C37.7852 52.5555 37.616 52.6477 37.4044 52.6938C37.2352 52.7399 37.0236 52.7399 36.8967 52.6938C36.7274 52.6016 36.6005 52.4633 36.5158 52.2789C36.4312 52.0023 36.5158 51.7257 36.7274 51.5412C36.812 51.449 36.939 51.4029 37.1082 51.3568C37.2352 51.3107 37.4044 51.3107 37.5314 51.3107C37.7852 51.3568 37.9968 51.5412 38.0391 51.8179C38.0391 52.0484 37.9968 52.2789 37.8699 52.4172Z" fill="#333333"/>
<path fill-rule="evenodd" clip-rule="evenodd" d="M28.9422 53.1549C28.9422 52.74 28.8576 52.3712 28.5191 52.1407L28.3075 52.0024C28.5614 51.9102 28.8999 51.6336 28.8999 51.2648C28.9422 50.8498 28.7729 50.5271 28.4768 50.2966C28.2229 50.1122 27.8844 50.02 27.5459 49.9739C27.2074 49.9278 26.8689 50.02 26.5727 50.1583C26.2765 50.3427 26.0226 50.6654 26.0649 51.0803C26.0649 51.4491 26.3188 51.7719 26.5727 51.9102L26.3611 52.0024C25.9803 52.1868 25.8533 52.5556 25.811 52.9705C25.7687 53.4315 25.9803 53.8464 26.3188 54.0769C26.5727 54.2613 26.9112 54.3535 27.292 54.3996C27.6305 54.4457 28.0113 54.3535 28.2652 54.2152C28.6883 53.9847 28.9422 53.5698 28.9422 53.1549ZM26.8689 51.2648C26.8265 51.0803 26.9112 50.8037 27.1227 50.6654C27.2497 50.5732 27.3766 50.5732 27.5459 50.5732C27.7151 50.5732 27.8421 50.6193 27.969 50.7115C28.1383 50.8498 28.2229 51.1264 28.1383 51.3108C28.0959 51.4491 28.0113 51.5414 27.8844 51.6336C27.7574 51.6797 27.6305 51.7258 27.5036 51.6797C27.3766 51.6797 27.2074 51.6336 27.1227 51.5875C26.9958 51.4953 26.9112 51.4031 26.8689 51.2648ZM27.8844 53.5698C27.7574 53.662 27.5882 53.7081 27.3766 53.662C27.2074 53.662 26.9958 53.5698 26.8689 53.4776C26.6996 53.3393 26.615 53.1549 26.615 52.9705C26.615 52.6939 26.7842 52.4634 26.9958 52.3712C27.0804 52.3251 27.2497 52.3251 27.3766 52.3251C27.5036 52.3251 27.6728 52.3712 27.7574 52.4173C28.0113 52.5556 28.0959 52.7861 28.0959 53.0627C28.1382 53.2932 28.0536 53.4776 27.8844 53.5698Z" fill="#333333"/>
<path fill-rule="evenodd" clip-rule="evenodd" d="M46.079 12.9546L42.5247 14.6143L42.2285 13.8305L45.7405 12.1709L46.079 12.9546Z" fill="#333333"/>
<path fill-rule="evenodd" clip-rule="evenodd" d="M32.7499 6.31595L31.8613 1.98242L32.7076 2.07463C32.8768 3.13496 33.0461 4.33359 33.2577 5.25562C33.6385 4.42579 34.0193 3.27326 34.3578 2.25903L35.2041 2.35124L33.5116 6.36204L32.7499 6.31595Z" fill="#333333"/>
<path fill-rule="evenodd" clip-rule="evenodd" d="M17.6872 8.75935L16.841 10.4651L16.1216 10.0041L17.0948 8.06783L16.5448 7.74512L15.1484 10.419L18.5335 12.4936L19.8875 9.77359L19.3374 9.45087L18.3642 11.3871L17.4334 10.7878L18.2796 9.12816L17.6872 8.75935Z" fill="#333333"/>
<path fill-rule="evenodd" clip-rule="evenodd" d="M15.6559 26.6003C15.4866 26.1393 15.0212 25.9549 14.5557 26.001C14.1749 26.0471 13.8787 26.3237 13.7095 26.7847C13.6671 26.5081 13.4133 26.1854 13.0748 26.1393C12.6939 26.0932 12.3131 26.1854 12.1439 26.5542C11.89 26.923 12.0169 28.4905 11.9746 29.3664H15.7828V29.0437C15.7828 27.4302 15.8674 27.1997 15.6559 26.6003ZM13.4979 28.4905H12.567C12.6093 27.5224 12.4401 27.0152 12.9901 26.9691C13.3286 26.923 13.4133 27.0152 13.4556 27.2458C13.4979 27.4302 13.4979 27.6607 13.4979 28.4905ZM15.1481 28.4905H14.0903C14.0903 27.5685 13.9633 27.0152 14.4711 26.923C14.6403 26.8769 14.8519 26.8769 14.9788 27.0152C15.1904 27.2458 15.1481 27.6146 15.1481 28.4905Z" fill="#333333"/>
<path fill-rule="evenodd" clip-rule="evenodd" d="M46.0788 15.3055L46.7135 15.1211L47.4751 18.3943L46.8827 18.5787L46.5866 17.3801L43.4977 18.2099L43.2861 17.3801L46.375 16.5041L46.0788 15.3055Z" fill="#333333"/>
<path fill-rule="evenodd" clip-rule="evenodd" d="M26.6576 6.54618C26.2345 6.63838 25.7691 6.59227 25.4306 6.36176C25.1344 6.17736 25.0074 5.90076 24.9651 5.62415L24.542 2.62757L25.3459 2.48926L25.8114 5.48584C25.8537 5.71635 26.0653 5.90075 26.2768 5.94686C26.4038 5.99296 26.5307 5.99296 26.6576 5.94686V6.54618Z" fill="#333333"/>
<path fill-rule="evenodd" clip-rule="evenodd" d="M26.6569 6.54654C27.08 6.45434 27.5032 6.26992 27.757 5.94721C28.0109 5.67061 28.0109 5.394 28.0109 5.07129L27.5878 2.07471L26.7838 2.21301L27.207 5.20959C27.2493 5.4401 27.08 5.67061 26.9108 5.76281C26.8262 5.85501 26.6992 5.85501 26.5723 5.90111L26.6569 6.54654Z" fill="#333333"/>
<path fill-rule="evenodd" clip-rule="evenodd" d="M47.8567 21.2529L43.8369 20.377L43.9638 21.2068L44.8524 21.3912L45.064 22.9125L44.26 23.3274L44.387 24.1573L48.0259 22.1288L47.8567 21.2529ZM45.6564 22.5437L45.5294 21.5295L47.1797 21.8061L45.6564 22.5437Z" fill="#333333"/>
<path fill-rule="evenodd" clip-rule="evenodd" d="M47.3062 28.4445H47.3908L47.4754 28.3984H47.5177C47.7716 28.2601 47.8139 27.8912 47.8139 27.5685C47.8139 27.2458 47.7293 26.9692 47.4754 26.8309C47.3485 26.7848 47.1792 26.7848 47.0946 26.9231C46.6715 27.6146 46.9676 29.0899 45.8252 29.3665C45.3174 29.4587 44.8943 29.2282 44.6404 28.8133C44.3019 28.1218 44.2596 27.0614 44.6827 26.416C44.9366 26.0933 45.2328 25.8628 45.6559 25.8628L45.6983 26.6465C45.4444 26.6926 45.2328 26.8309 45.1059 27.0614C44.9366 27.4763 44.9789 28.1679 45.2751 28.3984C45.3598 28.5367 45.6136 28.4906 45.7406 28.4445C46.206 28.0757 46.0791 27.2458 46.333 26.6465C46.4176 26.416 46.6292 26.1394 46.8407 26.0011C47.2215 25.8167 47.7293 25.8628 48.0678 26.2316C48.5756 26.7387 48.6179 27.799 48.364 28.3984C48.237 28.8133 47.8139 29.136 47.3485 29.1821L47.3062 28.3984V28.4445Z" fill="#333333"/>
<path fill-rule="evenodd" clip-rule="evenodd" d="M16.2909 22.1288C16.2063 22.5898 16.037 23.0509 15.7408 23.3275C15.487 23.6041 15.2331 23.6041 14.9369 23.6041L12.1865 23.1431L12.3135 22.2671L15.0638 22.7281C15.2754 22.7742 15.4869 22.5898 15.5716 22.4054C15.6562 22.3132 15.6562 22.1749 15.6985 22.0366L16.2909 22.1288Z" fill="#333333"/>
<path fill-rule="evenodd" clip-rule="evenodd" d="M16.2903 22.1288C16.3749 21.6678 16.3326 21.1607 16.0787 20.7919C15.9095 20.4692 15.6556 20.3308 15.4017 20.2847L12.6513 19.8237L12.5244 20.6997L15.2748 21.1607C15.4863 21.2068 15.6556 21.4373 15.6979 21.6678C15.7402 21.8061 15.7402 21.9444 15.6979 22.0827L16.2903 22.1288Z" fill="#333333"/>
<path fill-rule="evenodd" clip-rule="evenodd" d="M20.5641 4.19531L19.8447 4.65633L20.691 8.98985L21.368 8.52883L21.1564 7.60681L22.3412 6.82308L23.0182 7.46851L23.6952 7.00749L20.5641 4.19531ZM21.0295 6.91529L20.6064 5.16344L21.8334 6.40817L21.0295 6.91529Z" fill="#333333"/>
<path fill-rule="evenodd" clip-rule="evenodd" d="M39.2662 5.53215L37.6583 4.79453L37.9545 3.96471L39.8163 4.84063L40.0702 4.19522L37.4468 2.99658L35.9658 6.86909L38.5892 8.06772L38.8431 7.42231L36.9813 6.54639L37.3621 5.48605L39.0124 6.22367L39.2662 5.53215Z" fill="#333333"/>
<path fill-rule="evenodd" clip-rule="evenodd" d="M15.8252 14.8446C15.8252 14.568 15.8252 14.3374 15.5714 14.1069C15.3598 13.8764 15.0213 13.7381 14.6828 13.7842C13.8365 13.9225 13.7096 14.9829 13.2441 16.6886L16.9254 17.8872L17.137 17.0574L15.6983 16.5964H15.656C15.7406 16.2276 15.9099 15.7205 15.9522 15.6283C16.2061 14.9829 17.1793 15.6283 17.5601 15.5361L17.7716 14.7062C17.1793 14.7062 16.2907 14.0608 15.8252 14.8446ZM15.0636 16.3659L14.0904 16.0432C14.302 15.3056 14.3866 14.614 14.852 14.6601C15.0213 14.7062 15.1482 14.7523 15.2752 14.8907C15.4444 15.1212 15.2329 15.6283 15.0636 16.3659Z" fill="#333333"/>
<path fill-rule="evenodd" clip-rule="evenodd" d="M42.736 6.50049L39.6895 9.03606L40.1549 9.72758L41.382 8.71334L41.4243 8.66724C41.6359 8.98995 41.9321 9.40487 41.9744 9.49707C42.3129 10.1425 41.255 10.6035 41.0858 10.9723L41.5512 11.6638C41.8897 11.0645 42.9053 10.6496 42.6091 9.77368C42.8206 9.95809 43.0322 10.0503 43.3284 10.0042C43.6246 9.95809 43.9208 9.72757 44.09 9.40486C44.4285 8.62114 43.7092 7.92963 42.736 6.50049ZM43.3284 9.08216C43.2014 9.22047 43.0745 9.31267 42.9053 9.31267C42.6091 9.31267 42.3552 8.80555 41.9321 8.25233L42.736 7.60692C43.1168 8.20623 43.6246 8.71335 43.3284 9.08216Z" fill="#333333"/>
<path fill-rule="evenodd" clip-rule="evenodd" d="M0 60.3003V69.8894H60V60.3003H0ZM8.25106 68.1836H5.54302V61.9599C6.68548 61.9599 7.36249 61.9599 8.29337 61.9599C9.18195 61.9599 9.85896 62.4671 9.94358 63.4352C9.9859 64.0806 9.81664 64.6799 9.09732 64.8643C9.73202 65.0487 10.1551 65.6941 10.1551 66.524C10.1551 67.2155 9.64739 68.1836 8.25106 68.1836ZM18.9563 66.524C18.9563 66.985 18.8293 67.3999 18.4062 67.7687C17.9408 68.2297 17.3061 68.368 16.6714 68.368C16.0367 68.368 15.402 68.1836 14.9365 67.7687C14.5134 67.3999 14.4288 67.0311 14.3865 66.524V62.006H15.5712V66.524C15.5712 66.8928 15.8251 67.1694 16.1213 67.3077C16.2906 67.3999 16.4598 67.3999 16.6714 67.3999C16.8406 67.3999 17.0522 67.3999 17.2214 67.3077C17.5176 67.1694 17.7715 66.8928 17.7715 66.524V62.006H18.9563V66.524ZM27.3343 68.1836C27.0804 68.1836 27.4612 65.6941 26.488 65.648C25.9379 65.6019 25.5994 65.648 25.0494 65.648V68.1836H23.8646V61.9599C24.9647 61.9599 25.5994 61.9599 26.5726 61.9599C27.4612 62.006 28.3498 62.3749 28.3921 63.4352C28.4767 64.6338 27.842 64.9104 27.2496 65.1409C28.6037 65.4636 28.0959 67.2155 28.4767 68.1836H27.3343ZM36.7278 64.3111V65.3714H34.1044V67.1233H37.1086V68.1375H32.9196V61.9138H37.1509V62.9281H34.1467V64.265L36.7278 64.3111ZM45.0212 68.1836L44.598 66.8006H42.5247L42.1016 68.1836H40.9168L42.9055 61.9599H44.1326L46.1213 68.1836H45.0212ZM54.457 66.524C54.457 66.985 54.33 67.3999 53.9069 67.7687C53.4415 68.2297 52.8068 68.368 52.1721 68.368C51.5374 68.368 50.9027 68.1836 50.4372 67.7687C50.0141 67.3999 49.9295 67.0311 49.8872 66.524V62.006H51.0719V66.524C51.0719 66.8928 51.3681 67.1694 51.622 67.3077C51.7913 67.3999 51.9605 67.3999 52.1721 67.3999C52.3413 67.3999 52.5529 67.3538 52.7221 67.3077C53.0183 67.1694 53.2722 66.8928 53.2722 66.524V62.006H54.457V66.524Z" fill="#333333"/>
<path fill-rule="evenodd" clip-rule="evenodd" d="M6.72754 65.418C7.15067 65.418 7.65843 65.418 8.25081 65.4641C8.67395 65.5102 8.97014 65.9251 8.97014 66.2939C8.97014 66.6627 8.75857 67.0776 8.37775 67.1237C7.95462 67.1698 7.91231 67.1698 6.76985 67.1698L6.72754 65.418Z" fill="#333333"/>
<path fill-rule="evenodd" clip-rule="evenodd" d="M6.72754 62.9282C7.27761 62.9282 7.65843 62.9282 8.12387 62.9282C8.50469 62.9282 8.84319 63.1587 8.84319 63.6197C8.84319 64.1269 8.58932 64.4496 8.16619 64.4496C7.74306 64.4496 7.31992 64.4496 6.72754 64.4496V62.9282Z" fill="#333333"/>
<path fill-rule="evenodd" clip-rule="evenodd" d="M44.6822 74.269L43.9629 76.8968H45.3592L44.6822 74.269Z" fill="#333333"/>
<path fill-rule="evenodd" clip-rule="evenodd" d="M0 71.4111V81.0002H60V71.4111H0ZM8.16643 79.2945H7.06629L5.11989 73.0708H6.38928C6.7701 74.6382 7.19323 76.3901 7.61636 77.6809C8.03949 76.3901 8.46262 74.6382 8.84344 73.0708H10.0705L8.16643 79.2945ZM17.3484 75.422V76.4823H14.725V78.2341H17.7292V79.2484H13.5402V73.0708H17.7715V74.085H14.7673V75.422H17.3484ZM25.2609 79.2945C25.0071 79.2945 25.3879 76.805 24.4147 76.7589C23.8646 76.7128 23.5261 76.7589 22.976 76.7589V79.2945H21.7913V73.0708C22.8914 73.0708 23.5261 73.0708 24.4993 73.0708C25.3879 73.1169 26.2765 73.5318 26.3188 74.546C26.4034 75.7447 25.7687 76.0213 25.1763 76.2518C26.5303 76.5745 26.0226 78.3263 26.4034 79.2945H25.2609ZM31.7772 79.2945H30.5924V73.0708H31.7772V79.2945ZM39.732 74.1311H38.0395V79.2945H36.8547V74.1311H35.1199V73.1169H39.732V74.1311ZM46.1213 79.2945L45.6982 77.9114H43.6248L43.2017 79.2945H42.0169L44.0056 73.0708H45.2327L47.2214 79.2945H46.1213ZM52.426 79.4328C50.6911 79.4328 50.0141 78.2341 50.0141 77.3582L51.1142 77.3121C51.1142 77.8192 51.5374 78.4646 52.3413 78.4646C52.976 78.4646 53.653 78.3263 53.653 77.5887C53.653 76.2518 50.2257 77.0355 50.2257 74.9148C50.2257 73.8084 50.945 72.8403 52.426 72.8403C54.5416 72.8403 54.7109 74.4077 54.7109 74.7765L53.6107 74.8226C53.6107 74.3155 53.3145 73.8545 52.5529 73.8545C51.7066 73.8545 51.3681 74.2694 51.3681 74.6843C51.3681 75.7908 54.8378 75.2376 54.8378 77.3121C54.8378 78.7412 53.8223 79.4328 52.426 79.4328Z" fill="#333333"/>
</svg>
