<svg xmlns="http://www.w3.org/2000/svg" width="164" height="138" viewBox="0 0 164 138"><path fill="#FFF" d="M70.167 1.843c.148-.05-.148.047 0 0m0 0c.027-.01-.023.006 0 0"/><path fill="#FFF" d="M82.816 77.602h-.096c-4.365 0-8.575-.654-12.552-1.851-4.276-1.49-8.239-4.463-10.693-8.184-4.05-5.919-7.724-17.358-7.88-28.751v-.034c.154-11.391 3.831-22.833 7.88-28.754 2.45-3.717 6.415-6.701 10.693-8.188C74.146.634 78.446 0 82.816 0c4.365 0 8.668.634 12.646 1.84 4.279 1.484 8.243 4.47 10.701 8.187 4.045 5.922 7.716 17.365 7.868 28.754v.034c-.152 11.396-3.823 22.833-7.868 28.751-2.458 3.722-6.518 6.708-10.791 8.19A42.71 42.71 0 0 1 82.903 77.6l-.087.002zm28.811-38.8c.143-8.582-2.475-18.998-4.996-24.536-2.792-6.341-7.056-10.188-13.316-11.903a42.578 42.578 0 0 0-10.549-1.304c-3.635 0-7.198.441-10.569 1.305-6.259 1.716-10.525 5.563-13.313 11.903-2.522 5.539-5.137 15.955-4.998 24.536-.14 8.58 2.476 18.996 4.998 24.538 2.788 6.337 7.055 10.184 13.313 11.896a42.546 42.546 0 0 0 10.569 1.313c3.637 0 7.176-.447 10.549-1.313 6.262-1.713 10.526-5.56 13.316-11.896 2.521-5.544 5.139-15.96 4.996-24.539zM87.109 21.136c-.422-.703-.076-.077-.51-.894"/><path fill="#FFF" d="M83.816 74.521c-.033-1.57 1.506-2.364 2.476-3.402.257-.253.358-.753.176-1.164-.118-.258-.282-.389-.504-.438-.337-.078-.62-.028-.839.158-.3.278-.384.646-.368 1.035l-1.079.064c-.088-.598.055-1.175.422-1.625.506-.534 1.26-.682 1.991-.637.583.098 1.269.453 1.511 1.063.311.663.209 1.518-.287 2.082-.637.674-1.461 1.045-1.991 1.805l2.718-.158c.021.326.043.662.061.973l-4.287.244zm-9.638-6.79l-.018.052-1.769 5.427-1.127-.373 1.212-3.705.02-.063c-.451-.159-.995-.313-1.434-.466l.229-.706c.569.147 1.157.246 1.659-.168.179-.146.21-.177.309-.287l.919.289zm21.489 3.011c-.146-.536-.437-.964-1.03-1.142l-.347-.068c.354-.25.677-.755.562-1.244-.082-.561-.479-.914-.992-1.106-.444-.14-.963-.115-1.457.019-.498.114-.961.335-1.297.666-.354.403-.553.902-.357 1.44.117.483.641.776 1.064.84l-.266.221c-.451.438-.509.946-.388 1.491.125.595.612 1.068 1.196 1.242.445.107.973.1 1.496-.021.521-.131.991-.365 1.328-.677.441-.431.65-1.064.488-1.661zm-3.731-1.55c-.143-.23-.143-.63.104-.867.144-.146.341-.254.563-.306.213-.058.447-.062.646.01.315.097.498.449.492.722a.698.698 0 0 1-.234.5 1.192 1.192 0 0 1-.534.262c-.205.055-.41.063-.594.02a.692.692 0 0 1-.443-.341zm2.375 2.614c-.148.166-.404.3-.684.359-.281.078-.566.082-.77-.008a.866.866 0 0 1-.551-.566c-.105-.369 0-.768.316-.985.141-.095.34-.187.55-.25.218-.037.44-.052.599-.029.39.048.668.343.746.718a.858.858 0 0 1-.206.761zm-13.303.97c.021-.548-.131-1.051-.649-1.389l-.305-.174c.41-.133.872-.518.903-1.021.089-.563-.193-1.017-.615-1.354-.386-.264-.884-.393-1.399-.416-.509-.041-1.02.03-1.436.246-.462.281-.798.705-.776 1.269-.024.503.383.942.776 1.121l-.325.133c-.563.28-.771.755-.811 1.302-.059.62.268 1.209.775 1.545.379.248.895.396 1.431.434.528.033 1.058-.062 1.472-.256.549-.275.933-.824.959-1.44zm-3.103-2.588c-.059-.262.063-.646.364-.795.168-.1.403-.143.622-.125.225.014.448.08.612.201.281.186.346.58.256.834-.061.205-.204.32-.371.412a1.313 1.313 0 0 1-.59.091 1.203 1.203 0 0 1-.567-.166.669.669 0 0 1-.326-.452zm1.484 3.202c-.186.115-.471.167-.758.148-.284-.021-.556-.103-.732-.23a.885.885 0 0 1-.344-.715c.006-.389.226-.727.593-.844.161-.048.374-.082.598-.068.22.02.438.07.582.139.355.165.531.53.492.916-.022.245-.177.495-.431.654zm27.156-55.636l-5.281 2.273-.47-1.096 5.279-2.28zM86.656 8.628l-1.354-5.917 1.242.127c.254 1.465.513 3.123.81 4.356.543-1.149 1.127-2.724 1.658-4.104l1.239.121-2.501 5.526-1.094-.109zM64.199 12.01l-1.285 2.298-1.083-.602 1.471-2.636-.824-.468-2.059 3.689 5.015 2.804 2.057-3.69-.829-.466-1.474 2.64-1.405-.787 1.286-2.297zm-3.041 24.426c-.276-.62-.94-.864-1.627-.831-.578.074-1.02.464-1.264 1.062-.089-.35-.416-.786-.97-.854-.574-.07-1.13.088-1.405.574-.377.484-.211 2.624-.25 3.854l5.707-.005.002-.414c-.033-2.276.102-2.55-.193-3.386zm-3.243 2.602H56.5c.043-1.314-.169-2.022.634-2.106.478-.034.605.067.718.36.091.293.063.605.063 1.746zm2.481-.001l-1.604.001h-.012c.029-1.275-.172-2.032.589-2.178.269-.072.591-.044.789.155.323.318.225.839.238 2.022zm46.192-18.089l.915-.239 1.16 4.495-.916.235-.429-1.661-4.616 1.191-.291-1.166 4.61-1.189zM77.59 8.956c.641-.099 1.239-.363 1.646-.84.347-.394.397-.769.345-1.189l-.66-4.116-1.169.188.66 4.108c.035.311-.179.628-.453.788a1.23 1.23 0 0 1-.521.179 1.325 1.325 0 0 1-.547-.004c-.311-.063-.607-.271-.676-.607l-.665-4.106-1.167.189.663 4.105c.08.418.246.761.704 1.026.526.323 1.182.386 1.825.275l.015.004zm31.655 20.134l-5.974-1.198.166 1.167 1.301.238.285 2.056-1.182.582.156 1.17 5.416-2.79-.168-1.225zm-3.32 1.813l-.196-1.424 2.482.378h.004l-.004.004h.008-.008l-2.286 1.042zm2.456 8.061l.113-.017.123-.033.101-.04c.378-.203.462-.708.445-1.116-.015-.416-.146-.835-.529-.991-.204-.053-.458-.071-.595.136-.65.962-.203 2.996-1.869 3.353-.729.123-1.373-.197-1.747-.78-.521-.919-.56-2.369.031-3.27.356-.467.839-.754 1.422-.76l.078 1.103c-.367.045-.718.23-.882.585-.24.573-.187 1.489.242 1.828.152.174.513.152.697.047.672-.476.532-1.664.872-2.46.103-.335.421-.681.729-.854.595-.253 1.346-.162 1.824.304.763.724.797 2.14.439 2.999-.195.596-.848 1.027-1.51 1.064l-.074-1.098h.09zm-46.256-8.678c.108-.645.043-1.304-.283-1.825-.262-.458-.604-.621-1.028-.707l-4.107-.641-.188 1.167 4.112.654c.31.043.544.36.608.665.043.174.043.362.011.554a1.331 1.331 0 0 1-.181.522c-.158.268-.445.489-.786.448l-4.107-.637-.182 1.165 4.114.646c.421.053.8-.001 1.189-.353.471-.404.731-1.01.83-1.649v-.011h-.002v.002zM68.5 5.723l-1.048.642 1.258 5.953 1.013-.606-.296-1.286 1.768-1.081 1.012.857 1.003-.616-4.71-3.863zm.702 3.718l-.64-2.42-.006-.008.006.002-.002-.008.006.013 1.857 1.678-1.221.743zm27.191-1.845l-2.416-1.018.475-1.146 2.777 1.163.373-.876-3.893-1.625-2.223 5.3 3.897 1.627.37-.877-2.789-1.168.62-1.483 2.436 1.024zm-34.989 12.73c-.002-.393-.021-.723-.351-1.035-.313-.327-.815-.476-1.307-.442-1.283.195-1.45 1.662-2.163 3.992l5.504 1.64.348-1.153-2.177-.646-.09-.025c.146-.53.362-1.199.47-1.347.39-.906 1.85-.018 2.427-.101l.335-1.143c-.977.053-2.294-.825-2.996.26zm-1.141 2.056l-1.442-.425c.317-.98.458-1.969 1.146-1.911.281.045.472.122.634.318.266.334-.082 1.071-.338 2.018zM101.564 8.89l-4.56 3.483.726.951 1.804-1.375.079-.058c.34.428.76.999.809 1.169.512.855-1.079 1.506-1.343 2.024l.726.947c.527-.835 2.021-1.375 1.549-2.583.32.237.601.413 1.053.33.453-.063.867-.381 1.13-.803.579-1.147-.5-2.15-1.973-4.085zm.863 3.571c-.196.198-.364.304-.63.313-.432.021-.816-.687-1.428-1.457l1.184-.914c.616.831 1.33 1.531.874 2.058zm-4.243 4.545c-1.211-2.755-3.625-4.782-6.561-5.623a34.014 34.014 0 0 0-8.76-1.165h-.096c-2.998 0-5.989.419-8.752 1.165-2.94.841-5.35 2.87-6.564 5.623-2.644 5.659-4.371 13.795-4.371 21.794 0 8.002 1.728 16.136 4.371 21.794 1.215 2.753 3.625 4.785 6.564 5.625a34.124 34.124 0 0 0 8.752 1.158h.096c3.003 0 5.994-.416 8.762-1.158 2.934-.838 5.348-2.87 6.559-5.625 2.639-5.659 4.377-13.792 4.377-21.794-.002-8.002-1.743-16.134-4.377-21.794zm-5.082 16.212c.086 0 .469-.08.48-.324v-5.051c.691-.161 1.395-.399 2.048-.534v3.045c.397-.047.601-.096 1.081-.171v4.013l-1.248.187-.395 1.619H90.62l-.659-1.44c-1.082-.101-1.16-.101-2.24-.179 1.021-1.315 2.063-2.626 2.771-4.064v-2.052l2.011-.257v4.867c0 .169.248.341.502.341h.102v.002l-.005-.002zm-2.61-18.565c.503-.145 1.184-.083 1.604.291.569.414.733 1.111.598 1.758-.396 1.398-1.963 1.66-3.229 1.994l-.692-.945c.252-1.207.388-2.599 1.719-3.098zM86.6 20.244l.51.894-1.271 1.392c-.343-.332-.374-.359-.714-.718.652-.687.714-.764 1.475-1.568zm-15.762-1.9v-.008c.226.665.643 1.138 1.305 1.45-.075-.355-.384-.673-.485-1.043-.287-.727-.259-1.761.213-2.393.333-.497.815-.702 1.344-.87-.201.599-.261 1.312-.019 1.916.351-.26.365-.279.635-.539.098-.095.145-.126.229-.195.493 1.047 1.046 2.491.724 3.71l-.199.521c-.076-.858-.216-1.271-.798-1.582-.076.5.243.86.318 1.512.235 1.013.051 2.019-.576 2.602h-1.614c-1.233-1.314-1.319-3.294-1.077-5.081zm3.716 6.662h-.862l-.374 3.083a3.39 3.39 0 0 0-1.251-.717c-.22-1.311-.24-1.403-.361-2.367h-.834v-.915c1.44-.004 2.237.001 3.683.001v.915zm-6.258 12.266l9.896-.006v2.877l-9.896.007v-2.878zm3.827-5.774c.413-.11.813.145 1.13.381-.047 1.672-.047 1.651-.083 3.404h-.917l-.005-.281c-.039-1.325-.095-2.195-.125-3.504zM71.5 51.816c-.183-.002-.514-.027-.699-.087-.429-.108-1.032-.335-1.395-.914l-.068-.133-.064-.176-.08-.184-.031-.287.003-5.379c-.047-.676-.3-.688-.854-1.099l.195-.067 2.181-.712c.31.336.379.771.408 1.221V48.2c-.004.271.232.43.546.444.371 0 .525-.142.557-.436.026-1.887-.031-2.411 0-4.122.05-.576.562-1.15 1.044-1.282.605-.289 1.334-.176 1.875.092.972.458.922 2.356.913 3.897-.383-.25-.442-.283-.82-.385-.334-.069-.699-.007-.954.189-.313.288-.347.565-.353 1.069-.025 1.782.171 3.01-.725 3.712-.579.405-1.111.439-1.679.438zm2.899 5.824c-.472-.312-.582-.616-.746-1.046-.401-1.827 1.808-2.482 2.328-4 .415-2.538.533-5.208 2.301-7.19.176-3.726 1.379-7.022 4.028-9.732-.126-.843-.466-1.57-.72-2.354-.346-.01-.583-.079-.896-.357a1.983 1.983 0 0 1-.383-.964c-.924 1.147-2.066 2.427-3.322 3.198-.232.128-.523-.141-.946-.533-1.542-1.223-1.803-3.976-4.157-3.856-1.068-.361-1.017-1.617-1.19-2.561.396-.291 1.041-.277 1.515-.093 1.469.786 2.448 2.441 3.833 3.547.371.294.704.685 1.045.826.913-.782 1.64-1.453 2.258-2.663.427-.691 1.137-.984 1.923-.997l.559-.657-.292-1.646a11.764 11.764 0 0 1-1.438-2.326c.203-.941.325-2.041 1.279-2.558.626-.39 1.134.491 1.644-.065.371-.074.699.025.957.241.388.672.845 1.343.873 2.125-.235.762-.604 1.468-.959 2.18-.084.154-.3.207-.449.324.094.318.168.679.391.934.282.058.557.108.896.048.271-.832 1.168-1.205 1.914-1.433l1.644-1.068c-.271-1.245.53-2.339.09-3.578-.937-.443-1.209-1.499-1.403-2.331.145-.513.402-1.067.769-1.506l.057.065c.896 1.042 1.722 2.114 2.007 3.408.158 1.653.32 3.348.211 5.072-.888.884-1.949 1.406-2.959 2.06l-.746 1.436c-.097 1.478-.523 2.808-.75 4.239.639 1.73 1.39 4.033.838 5.635-.433.951-1.325 1.475-1.996 2.001l-1.68 1.347c1.686 1.856 1.281 3.962 1.348 6.659-.012.65 1.152 1.191.533 1.933-.523.832-1.334 1.503-1.203 2.594-.51.872-1.744 1.056-2.331 1.048a.206.206 0 0 1-.22-.21c.121-.447.468-.799.651-1.222.6-.919.326-2.187 1.072-3.042-.614-2.001-1.542-3.858-1.799-5.993l-.015-.137c-.502.981-.223 1.946.041 2.721-1.659 2.083-3.453 4.093-3.453 6.836-.708 1.259-1.711 2.404-2.241 3.731-.177.222-.508.027-.711-.09zm10.982-6.603c.977.044 1.95.849 2.331 1.754.388.921.231 2.129-.362 2.898-.75.903-1.776 1.383-2.984 1.167-.756-.166-1.502-.63-1.938-1.341.619-.208 1.503-.565 1.677-1.168-.043-.938.598-1.688 1.08-2.438.239-.323.268-.519.196-.872zm.926-.83l.008-8.494c1.213-.02 1.604.016 2.86-.006v8.5h-2.868zm-6.175 12.952c-.786.569-2.091.702-2.958.216-.5-.241-.949-.726-1.224-1.199-.204-.455-.288-.613-.307-1.081 2.068 0 3.464 0 5.66.002-.012.786-.453 1.553-1.171 2.062zm3.876.215h-1.946v-3.498l-3.038.003v-1.407h3.051l.953-1.131c.465.542.508.582.99 1.131h3.045v1.407l-3.056-.003.001 3.498zm6.103-1.198c-.277.474-.721.957-1.221 1.198-.871.487-2.181.353-2.959-.217-.711-.51-1.154-1.276-1.168-2.062l5.661-.001c-.026.469-.1.628-.313 1.082zm2.189-17.52c1.3 1.291 2.478 2.462 3.646 3.608.438.47.777 1.142.5 1.761-.143.305-.323.64-.528.909 0-.604-.258-.954-.603-1.292-1.592-1.563-4.346-3.739-4.563-4.662-.245-.619-.167-1.372-.186-2.088.469-.359.842-.674 1.394-1.108-.036 1.099-.189 2.221.34 2.872zm2.704-2.878c.607.499.911.775 1.486 1.322.328 1.447-.534 2.264-1.186 3.282l-2.566-2.456v-1.424c.308-.337.412-.458.77-.813l.727.874v2.414c1.017-.493.769-1.944.769-3.199zm-.609 12.947c-.302.337-.41.461-.771.813l-.725-.87v-2.424c-1.017.5-.771 1.944-.771 3.199a25.22 25.22 0 0 1-1.485-1.315c-.326-1.444.535-2.27 1.19-3.286l2.558 2.455.004 1.428zm2.168-.389c-.459.366-.842.676-1.391 1.105.037-1.1.191-2.218-.336-2.872a991.359 991.359 0 0 0-3.646-3.606c-.434-.471-.785-1.144-.498-1.765.136-.297.32-.637.523-.904 0 .604.266.947.602 1.29 1.596 1.561 4.347 3.741 4.567 4.663.243.624.167 1.364.179 2.089zm.992-14.171l-9.896-.016V37.27l9.896-.006v2.901zM37.789 82.603v13.146h89.526V82.603H37.789zm12.326 10.803h-4.044v-8.534c1.715.006 2.713 0 4.134 0 1.313 0 2.353.713 2.452 2.018.093.898-.191 1.688-1.279 1.961.96.267 1.575 1.139 1.581 2.273.008.965-.745 2.282-2.844 2.282zm15.956-2.3c-.021.638-.182 1.175-.786 1.672-.702.6-1.657.848-2.617.841h-.024c-.961.007-1.91-.241-2.614-.841-.607-.497-.768-1.036-.796-1.672v-6.215h1.764L61 91.106c.019.507.404.886.854 1.04.242.104.524.157.804.142.281.02.563-.033.803-.142.444-.154.842-.584.851-1.04l.002-6.215h1.763l-.006 6.215zm12.513 2.307c-.406-.009.194-3.396-1.271-3.484-.822-.053-1.339-.021-2.152-.008l.008 3.492h-1.783v-8.551c1.636.016 2.577.025 4.042.025 1.323.063 2.639.591 2.729 2.025.099 1.66-.84 2.043-1.721 2.329 2.038.437 1.286 2.815 1.829 4.167h-1.68l-.001.005zm14.012-5.31l.006 1.477h-3.918l-.004 2.39h4.49l.004 1.42h-6.287v-8.549h6.287l-.004 1.412-4.482.006v1.845l3.908-.001zm12.369 5.31l-.617-1.871h-3.092l-.613 1.871h-1.75l2.988-8.555h1.84l2.99 8.555h-1.746zm14.08-2.32c-.028.634-.188 1.17-.796 1.67-.702.603-1.652.845-2.612.839h-.027c-.959.006-1.912-.236-2.614-.839-.603-.5-.769-1.036-.794-1.67v-6.217h1.77v6.217c.014.507.409.875.846 1.048.244.102.523.146.812.141a1.93 1.93 0 0 0 .808-.141c.437-.171.837-.593.843-1.048l.006-6.217h1.768l-.01 6.217zm-41.621-4.819c-.5-.037-1.414.021-2.253 0v2.212c1.642.002 1.891-.004 2.398-.051.508-.05.832-.513.832-1.142s-.464-.966-.977-1.019zm24.31 3.852h2.134l-1.068-3.574-1.066 3.574zm-51.74-1.875c.621 0 .999-.422.999-1.109 0-.663-.5-.948-1.063-.948h-2.074l.001 2.058h2.137v-.001zm.121 1.379c-.845-.055-1.627-.051-2.259-.051v.016l-.007 2.396c1.761-.027 1.821 0 2.424-.076.613-.068.901-.609.901-1.14.001-.533-.396-1.106-1.059-1.145zm24.221 11.847c-.503-.052-1.423.01-2.255 0v2.201c1.631.006 1.885-.004 2.394-.059.505-.051.841-.503.835-1.135-.007-.627-.471-.973-.974-1.007zm-36.547-3.652v13.153h89.526V97.825H37.789zm12.19 10.791H48.34l-2.896-8.546 1.869-.004c.591 2.132 1.225 4.543 1.845 6.333.626-1.79 1.261-4.201 1.846-6.329l1.846-.004-2.871 8.55zm13.705-5.292v1.479l-3.917-.004v2.392h4.487l.008 1.427h-6.283v-8.556h6.285l-.01 1.414-4.483.004v1.844h3.913zm11.801 5.268c-.4 0 .196-3.389-1.269-3.477-.825-.051-1.338-.01-2.152-.004l.01 3.48h-1.78v-8.54c1.633.008 2.572.02 4.044.02 1.316.066 2.633.598 2.722 2.035.102 1.663-.842 2.039-1.718 2.319 2.037.445 1.278 2.813 1.824 4.166h-1.681v.001zm9.759.024h-1.799v-8.55h1.799v8.55zm11.861-7.095h-2.549v7.095h-1.785l-.008-7.095-2.556.004v-1.396h6.896v1.394h.002v-.002zm9.506 7.095l-.612-1.864h-3.091l-.62 1.864h-1.752l2.997-8.546h1.837l2.991 8.546h-1.75zm9.422.195c-2.596 0-3.598-1.625-3.598-2.865l1.638-.061c0 .681.636 1.563 1.827 1.563.919 0 1.939-.199 1.939-1.201 0-1.813-5.143-.748-5.143-3.63 0-1.533 1.043-2.847 3.301-2.847 3.14 0 3.418 2.125 3.418 2.671l-1.646.059c0-.693-.422-1.338-1.579-1.338-1.254 0-1.737.549-1.737 1.143 0 1.538 5.165.75 5.165 3.631.002 1.906-1.478 2.875-3.585 2.875zm-11.571-7.071l-.008.013v.008l-1.071 3.581h2.131l-1.056-3.581v-.021h.004zM3.974 135.146c-1.611 0-2.833-.346-3.875-1.404L1.44 132.4c.671.667 1.579.895 2.562.895 1.222 0 1.879-.465 1.879-1.313 0-.374-.104-.688-.33-.896-.209-.195-.447-.301-.938-.375l-1.282-.182c-.909-.131-1.578-.416-2.058-.874-.506-.515-.762-1.202-.762-2.1 0-1.896 1.402-3.226 3.699-3.226 1.457 0 2.518.355 3.424 1.241l-1.31 1.297c-.673-.647-1.475-.731-2.176-.731-1.103 0-1.64.615-1.64 1.346 0 .27.09.557.313.764.208.195.552.361.982.418l1.253.178c.969.136 1.577.404 2.026.828.567.535.819 1.311.819 2.25.006 2.062-1.71 3.226-3.927 3.226zm9.987-.091v-4.75c0-1.028-.656-1.369-1.268-1.369-.608 0-1.251.352-1.251 1.369v4.75H9.504V124.42h1.938v3.57c.522-.537 1.178-.813 1.863-.813 1.698 0 2.591 1.201 2.591 2.846v5.029h-1.935v.003zm7.876 0v-.672c-.523.523-1.016.748-1.907.748-.88 0-1.519-.227-1.98-.688-.42-.438-.643-1.063-.643-1.748 0-1.238.849-2.259 2.653-2.259h1.835v-.386c0-.855-.42-1.229-1.446-1.229-.744 0-1.087.187-1.491.647l-1.236-1.213c.761-.836 1.505-1.078 2.8-1.078 2.173 0 3.308.932 3.308 2.752v5.126h-1.894.001zm-.043-3.289h-1.538c-.7 0-1.088.328-1.088.886 0 .537.356.892 1.116.892.537 0 .882-.039 1.223-.371.209-.191.286-.508.286-.981v-.422h.001v-.004zm9.585 2.68c-.433.433-1.134.702-1.893.702-.792 0-1.37-.21-1.876-.777v3.538h-1.938v-10.632h1.878v.729c.537-.6 1.116-.825 1.936-.825.759 0 1.459.271 1.893.706.772.775.787 2.106.787 3.271.001 1.162-.013 2.506-.787 3.288zm-2.457-5.51c-1.163 0-1.312.949-1.312 2.224 0 1.267.148 2.241 1.312 2.241s1.311-.973 1.311-2.241c-.003-1.275-.149-2.224-1.311-2.224zm4.965-2.996v-1.58h1.98v1.58h-1.98zm.027 9.115v-7.777h1.938v7.777h-1.938zm8.429 0v-4.701c0-1.066-.669-1.418-1.28-1.418-.61 0-1.293.352-1.293 1.418v4.701h-1.938v-7.777h1.896v.714c.504-.538 1.22-.812 1.937-.812.774 0 1.398.258 1.832.689.626.629.79 1.359.79 2.213v4.975l-1.944-.002zM48.96 138c-1.191 0-2.011-.24-2.813-1.016l1.206-1.229c.432.42.862.602 1.519.602 1.163 0 1.565-.818 1.565-1.611v-.796c-.507.571-1.088.778-1.849.778-.759 0-1.417-.256-1.848-.688-.73-.731-.788-1.731-.788-3.099 0-1.354.06-2.341.788-3.074.431-.435 1.102-.688 1.863-.688.819 0 1.354.227 1.892.823v-.729h1.876v7.499c.001 1.869-1.325 3.228-3.411 3.228zm.193-9.064c-1.146 0-1.264.979-1.264 2.007 0 1.036.119 2.037 1.264 2.037 1.15 0 1.286-1.001 1.286-2.037-.001-1.027-.135-2.007-1.286-2.007zm12.826 6.119v-.672c-.521.523-1.014.748-1.906.748-.88 0-1.518-.227-1.982-.688-.417-.438-.64-1.063-.64-1.748 0-1.238.851-2.259 2.653-2.259h1.83v-.386c0-.855-.417-1.229-1.445-1.229-.742 0-1.085.187-1.488.647l-1.236-1.213c.762-.836 1.505-1.078 2.802-1.078 2.176 0 3.308.932 3.308 2.752v5.126h-1.893v-.003h-.002v.003zm-.043-3.289H60.4c-.701 0-1.087.328-1.087.886 0 .537.357.892 1.116.892.538 0 .88-.039 1.225-.371.208-.191.281-.508.281-.981v-.426h.001zm16.67 3.289h-1.729l-1.951-6.449-1.953 6.449h-1.729l-2.83-10.635h2.16l1.641 6.709 1.935-6.709h1.549l1.937 6.709 1.654-6.709h2.159l-2.843 10.635zm8.946-.865c-.481.508-1.27.956-2.421.956-1.143 0-1.917-.45-2.396-.956-.699-.731-.878-1.61-.878-3.033 0-1.401.18-2.286.878-3.018.479-.513 1.256-.96 2.396-.96 1.148 0 1.938.449 2.421.96.696.729.872 1.612.872 3.018 0 1.42-.176 2.3-.872 3.033zm-1.512-4.914c-.224-.224-.513-.339-.909-.339-.388 0-.667.115-.895.339-.398.401-.445 1.077-.445 1.881 0 .806.045 1.494.445 1.896.228.224.507.344.895.344.396 0 .688-.12.909-.344.399-.401.448-1.092.448-1.896 0-.803-.049-1.479-.448-1.881zm8.314.118c-.301-.298-.549-.458-1.031-.458-.596 0-1.25.443-1.25 1.434v4.688h-1.934v-7.779h1.887v.743c.373-.449 1.115-.841 1.955-.841.758 0 1.297.196 1.83.735l-1.457 1.478zm4.893 5.661c-1.588 0-2.267-1.121-2.267-2.227v-8.41h1.937v8.287c0 .465.203.711.688.711h.748v1.639h-1.106zm6.905 0v-.731c-.536.601-1.101.825-1.926.825-.759 0-1.473-.271-1.901-.702-.774-.778-.792-2.124-.792-3.287s.018-2.495.792-3.272c.43-.436 1.134-.706 1.887-.706.794 0 1.394.211 1.896.782v-3.543h1.937v10.633h-1.89v.002h-.003zm-1.371-6.119c-1.16 0-1.311.949-1.311 2.224 0 1.267.149 2.241 1.311 2.241 1.169 0 1.326-.973 1.326-2.241 0-1.275-.159-2.224-1.326-2.224zm14.26 5.254c-.479.508-1.269.956-2.417.956-1.146 0-1.925-.45-2.396-.956-.701-.731-.877-1.61-.877-3.033 0-1.401.176-2.286.877-3.018.472-.513 1.254-.96 2.396-.96 1.146 0 1.938.449 2.417.96.696.729.874 1.612.874 3.018 0 1.42-.18 2.3-.874 3.033zm-1.513-4.914c-.221-.224-.518-.339-.904-.339-.388 0-.671.115-.896.339-.401.401-.444 1.077-.444 1.881 0 .806.043 1.494.444 1.896.225.224.51.344.896.344.391 0 .688-.12.904-.344.4-.401.449-1.092.449-1.896.001-.803-.048-1.479-.449-1.881zm6.314-.301v6.08h-1.938v-6.08h-.803v-1.477h.803v-.975c0-1.104.688-2.229 2.265-2.229h1.104v1.643h-.76c-.462 0-.671.254-.671.705v.854h1.431v1.477l-1.431.002zm10.577-2.704v8.784h-2.068v-8.784h-2.776v-1.853h7.614v1.853h-2.77zm7.309 3.123c-.299-.298-.557-.458-1.03-.458-.597 0-1.25.443-1.25 1.434v4.688h-1.941v-7.779h1.896v.743c.373-.449 1.113-.841 1.951-.841.765 0 1.297.196 1.836.735l-1.462 1.478zm7.179 5.661v-.719c-.51.541-1.225.813-1.942.813-.772 0-1.396-.253-1.832-.688-.626-.629-.786-1.359-.786-2.209v-4.973h1.938v4.703c0 1.059.669 1.418 1.276 1.418.61 0 1.297-.359 1.297-1.418v-4.703h1.939v7.777h-1.891v-.001h.001zm6.549.091c-1.219 0-2.323-.141-3.307-1.119l1.271-1.271c.638.646 1.474.73 2.065.73.677 0 1.375-.222 1.375-.804 0-.392-.211-.663-.822-.722l-1.219-.117c-1.399-.137-2.264-.745-2.264-2.182 0-1.617 1.414-2.482 2.993-2.482 1.206 0 2.216.209 2.962.912l-1.191 1.209c-.446-.4-1.135-.521-1.809-.521-.77 0-1.099.354-1.099.745 0 .283.116.616.806.673l1.223.117c1.533.153 2.311.972 2.311 2.29.002 1.719-1.461 2.542-3.295 2.542zm7.386-.091c-1.577 0-2.249-1.121-2.249-2.227v-3.855h-.814v-1.475h.814v-2.31h1.936v2.31h1.373v1.475h-1.373v3.732c0 .453.213.711.674.711h.697v1.639h-1.058z"/></svg>